<svg width="157" height="36" viewBox="0 0 157 36" fill="none" xmlns="http://www.w3.org/2000/svg">
<g clip-path="url(#clip0_1_146)">
<path d="M32.5406 19.5474C33.7668 24.0797 34.9912 28.0785 36.1568 32.8255L35.606 18.0026L32.5406 19.5474Z" fill="white"/>
<path d="M34.3755 11.1098L33.7105 0C16.7643 15.3304 0 36 0 36C24.8746 20.4566 55.4366 8.43931 55.4366 8.43931C23.7835 19.1751 17.9749 22.1123 17.9749 22.1123C27.4758 10.3617 30.5031 7.4764 30.5031 7.4764C30.5031 7.4764 30.8668 10.0395 31.7137 14.5268C31.7137 14.5268 49.3855 8.49127 54.6503 6.78193C54.5897 6.72998 34.8605 11.0025 34.3755 11.1098Z" fill="white"/>
<path d="M61.3449 22.2318L62.7183 20.8775C62.8793 20.7355 63.1028 20.7164 63.2638 20.8775C63.5063 21.1199 63.7487 21.3018 64.2943 21.3018C64.8606 21.3018 65.4858 20.777 65.4858 19.7656V10.2491C65.4858 10.0465 65.6468 9.86464 65.8703 9.86464H68.3364C68.5581 9.86464 68.7209 10.0465 68.7209 10.2491V19.7881C68.7209 22.5972 66.7396 24.213 64.3757 24.213C62.6178 24.213 61.648 23.1618 61.3034 22.7375C61.2029 22.5747 61.2237 22.3738 61.3449 22.2318Z" fill="white"/>
<path d="M82.3996 10.2491C82.3996 10.0465 82.5606 9.86464 82.784 9.86464H91.1506C91.3723 9.86464 91.5351 10.0465 91.5351 10.2491V12.452C91.5351 12.6547 91.374 12.8365 91.1506 12.8365H85.5515V15.3425H90.1582C90.3609 15.3425 90.5427 15.5243 90.5427 15.727V17.9299C90.5427 18.1515 90.3609 18.3143 90.1582 18.3143H85.5515V21.042H91.1489C91.3706 21.042 91.5333 21.2239 91.5333 21.4265V23.6294C91.5333 23.832 91.3723 24.0139 91.1489 24.0139H82.7823C82.5606 24.0139 82.3978 23.832 82.3978 23.6294V10.2491H82.3996Z" fill="white"/>
<path d="M106.57 12.8348H103.679C103.457 12.8348 103.295 12.6529 103.295 12.4503V10.2491C103.295 10.0465 103.456 9.86464 103.679 9.86464H112.652C112.874 9.86464 113.036 10.0465 113.036 10.2491V12.452C113.036 12.6547 112.875 12.8365 112.652 12.8365H109.761V23.6277C109.761 23.8303 109.58 24.0121 109.377 24.0121H106.952C106.75 24.0121 106.568 23.8303 106.568 23.6277V12.8348H106.57Z" fill="white"/>
<path d="M130.234 9.7538C134.276 9.7538 137.51 13.0079 137.51 17.0484C137.51 21.0905 134.276 24.3031 130.234 24.3031C126.192 24.3031 122.979 21.0905 122.979 17.0484C122.979 13.0079 126.192 9.7538 130.234 9.7538ZM130.234 22.8899C133.447 22.8899 136.095 20.2627 136.095 17.0501C136.095 13.8375 133.447 11.1687 130.234 11.1687C127.022 11.1687 124.394 13.8358 124.394 17.0501C124.394 20.2627 127.022 22.8899 130.234 22.8899Z" fill="white"/>
<path d="M148.179 21.9807C148.28 21.8595 148.382 21.7174 148.482 21.5962C148.685 21.333 148.906 21.1719 149.189 21.4144C149.331 21.5356 150.805 22.9505 152.604 22.9505C154.241 22.9505 155.313 21.9201 155.313 20.7286C155.313 19.3344 154.1 18.5066 151.776 17.535C149.554 16.5652 148.219 15.656 148.219 13.3526C148.219 11.9792 149.31 9.75554 152.523 9.75554C154.502 9.75554 155.978 10.786 155.978 10.786C156.099 10.8466 156.341 11.0891 156.099 11.4735C156.017 11.5948 155.938 11.7368 155.856 11.858C155.675 12.1403 155.472 12.2217 155.15 12.0399C155.008 11.9585 153.735 11.1098 152.502 11.1098C150.36 11.1098 149.714 12.4832 149.714 13.3318C149.714 14.6861 150.744 15.4741 152.441 16.1807C155.169 17.2926 156.927 18.323 156.927 20.6662C156.927 22.7669 154.926 24.3031 152.562 24.3031C150.178 24.3031 148.562 22.909 148.299 22.6665C148.139 22.5262 147.937 22.3652 148.179 21.9807Z" fill="white"/>
</g>
<defs>
<clipPath id="clip0_1_146">
<rect width="156.928" height="36" fill="white"/>
</clipPath>
</defs>
</svg>
